<svg width="38" height="39" viewBox="0 0 38 39" fill="none" xmlns="http://www.w3.org/2000/svg">
<path d="M11.4105 39C10.3646 39 9.46917 38.6181 8.72431 37.8544C7.97946 37.0906 7.60703 36.1725 7.60703 35.1C7.60703 34.0275 7.97946 33.1094 8.72431 32.3456C9.46917 31.5819 10.3646 31.2 11.4105 31.2C12.4565 31.2 13.3519 31.5819 14.0968 32.3456C14.8416 33.1094 15.2141 34.0275 15.2141 35.1C15.2141 36.1725 14.8416 37.0906 14.0968 37.8544C13.3519 38.6181 12.4565 39 11.4105 39ZM30.4281 39C29.3821 39 28.4867 38.6181 27.7419 37.8544C26.997 37.0906 26.6246 36.1725 26.6246 35.1C26.6246 34.0275 26.997 33.1094 27.7419 32.3456C28.4867 31.5819 29.3821 31.2 30.4281 31.2C31.4741 31.2 32.3695 31.5819 33.1143 32.3456C33.8592 33.1094 34.2316 34.0275 34.2316 35.1C34.2316 36.1725 33.8592 37.0906 33.1143 37.8544C32.3695 38.6181 31.4741 39 30.4281 39ZM9.79405 7.8L14.3583 17.55H27.6706L32.9004 7.8H9.79405ZM7.98738 3.9H36.0383C36.7673 3.9 37.322 4.23312 37.7023 4.89937C38.0827 5.56562 38.0985 6.24 37.7499 6.9225L30.9986 19.4025C30.65 20.0525 30.1825 20.5562 29.5961 20.9137C29.0097 21.2712 28.3679 21.45 27.6706 21.45H13.5025L11.4105 25.35H34.2316V29.25H11.4105C9.98423 29.25 8.90656 28.6081 8.17756 27.3244C7.44855 26.0406 7.41685 24.765 8.08247 23.4975L10.6498 18.72L3.80351 3.9H0V0H6.18071L7.98738 3.9Z" fill="#FAFAFA"/>
</svg>
