<svg width="40" height="37" viewBox="0 0 40 37" fill="none" xmlns="http://www.w3.org/2000/svg">
<path d="M20 37L17.1 34.3787C13.7333 31.3206 10.95 28.6826 8.75 26.4646C6.55 24.2466 4.8 22.2555 3.5 20.4911C2.2 18.7268 1.29167 17.1054 0.775 15.6267C0.258333 14.148 0 12.6358 0 11.0899C0 7.93097 1.05 5.29292 3.15 3.17575C5.25 1.05858 7.86667 0 11 0C12.7333 0 14.3833 0.369664 15.95 1.10899C17.5167 1.84832 18.8667 2.8901 20 4.23433C21.1333 2.8901 22.4833 1.84832 24.05 1.10899C25.6167 0.369664 27.2667 0 29 0C32.1333 0 34.75 1.05858 36.85 3.17575C38.95 5.29292 40 7.93097 40 11.0899C40 12.6358 39.7417 14.148 39.225 15.6267C38.7083 17.1054 37.8 18.7268 36.5 20.4911C35.2 22.2555 33.45 24.2466 31.25 26.4646C29.05 28.6826 26.2667 31.3206 22.9 34.3787L20 37ZM20 31.5559C23.2 28.6658 25.8333 26.1873 27.9 24.1206C29.9667 22.0538 31.6 20.2559 32.8 18.7268C34 17.1978 34.8333 15.8367 35.3 14.6437C35.7667 13.4507 36 12.2661 36 11.0899C36 9.07357 35.3333 7.39328 34 6.04905C32.6667 4.70481 31 4.0327 29 4.0327C27.4333 4.0327 25.9833 4.47797 24.65 5.36853C23.3167 6.25908 22.4 7.39328 21.9 8.77112H18.1C17.6 7.39328 16.6833 6.25908 15.35 5.36853C14.0167 4.47797 12.5667 4.0327 11 4.0327C9 4.0327 7.33333 4.70481 6 6.04905C4.66667 7.39328 4 9.07357 4 11.0899C4 12.2661 4.23333 13.4507 4.7 14.6437C5.16667 15.8367 6 17.1978 7.2 18.7268C8.4 20.2559 10.0333 22.0538 12.1 24.1206C14.1667 26.1873 16.8 28.6658 20 31.5559Z" fill="#FAFAFA"/>
</svg>
