<svg width="40" height="38" viewBox="0 0 40 38" fill="none" xmlns="http://www.w3.org/2000/svg">
<path d="M20 19C17.25 19 14.8958 18.0698 12.9375 16.2094C10.9792 14.349 10 12.1125 10 9.5C10 6.8875 10.9792 4.65104 12.9375 2.79062C14.8958 0.930208 17.25 0 20 0C22.75 0 25.1042 0.930208 27.0625 2.79062C29.0208 4.65104 30 6.8875 30 9.5C30 12.1125 29.0208 14.349 27.0625 16.2094C25.1042 18.0698 22.75 19 20 19ZM0 38V31.35C0 30.0042 0.364583 28.7672 1.09375 27.6391C1.82292 26.5109 2.79167 25.65 4 25.0562C6.58333 23.8292 9.20833 22.9089 11.875 22.2953C14.5417 21.6818 17.25 21.375 20 21.375C22.75 21.375 25.4583 21.6818 28.125 22.2953C30.7917 22.9089 33.4167 23.8292 36 25.0562C37.2083 25.65 38.1771 26.5109 38.9062 27.6391C39.6354 28.7672 40 30.0042 40 31.35V38H0ZM5 33.25H35V31.35C35 30.9146 34.8854 30.5187 34.6562 30.1625C34.4271 29.8062 34.125 29.5292 33.75 29.3312C31.5 28.2625 29.2292 27.4609 26.9375 26.9266C24.6458 26.3922 22.3333 26.125 20 26.125C17.6667 26.125 15.3542 26.3922 13.0625 26.9266C10.7708 27.4609 8.5 28.2625 6.25 29.3312C5.875 29.5292 5.57292 29.8062 5.34375 30.1625C5.11458 30.5187 5 30.9146 5 31.35V33.25ZM20 14.25C21.375 14.25 22.5521 13.7849 23.5312 12.8547C24.5104 11.9245 25 10.8062 25 9.5C25 8.19375 24.5104 7.07552 23.5312 6.14531C22.5521 5.2151 21.375 4.75 20 4.75C18.625 4.75 17.4479 5.2151 16.4688 6.14531C15.4896 7.07552 15 8.19375 15 9.5C15 10.8062 15.4896 11.9245 16.4688 12.8547C17.4479 13.7849 18.625 14.25 20 14.25Z" fill="#FAFAFA"/>
</svg>
