<svg width="29" height="28" viewBox="0 0 29 28" fill="none" xmlns="http://www.w3.org/2000/svg">
<path d="M2.80605 20.7433C-0.121021 17.8705 1.99298 15.2099 3.41586 14.2387C3.88224 14.0571 4.68574 13.8987 4.22894 14.713C2.7112 15.8513 2.82865 17.5814 3.07709 18.3041C3.19001 18.9591 3.91726 20.3232 5.92285 20.54C10.8691 19.7947 12.4952 13.8322 13.376 11.664C1.93878 11.5014 -0.288144 7.1243 0.0280526 4.9561C-0.0171182 3.57839 0.935987 0.741659 5.10977 0.416429C9.28356 0.0911986 13.2179 6.24347 14.6634 9.36025C23.9181 -11.8004 40.2764 10.4308 15.7475 11.8672C16.7639 15.097 18.7288 20.269 17.3059 24.5377C15.8153 27.5189 13.0373 28.1965 10.8013 27.5867C8.56534 26.9769 7.68451 23.7246 8.15881 22.8438C8.53824 22.1391 9.35583 22.234 9.7172 22.3695C8.90413 25.012 12.6985 29.2129 15.4087 25.4863C17.3059 22.0713 15.4765 15.9326 14.3246 13.2901C11.7047 16.9715 8.97188 23.5891 2.80605 20.7433Z" fill="#F5FA9E"/>
<path d="M13.3083 10.7643C11.1852 6.15683 5.92281 -1.83839 2.264 2.56575C-1.01254 8.13093 8.6294 11.196 13.3083 10.7643Z" fill="#E15BAE"/>
<path d="M15.4087 10.9674C20.6033 11.0577 30.044 9.47676 26.2497 2.4301C22.9296 -1.97405 17.4414 5.18552 15.4087 10.9674Z" fill="#E15BAE"/>
</svg>
