<svg width="38" height="37" viewBox="0 0 38 37" fill="none" xmlns="http://www.w3.org/2000/svg">
<path d="M3.64787 27.3662C-0.157328 23.6315 2.59087 20.1727 4.44061 18.9102C5.04692 18.6741 6.09146 18.4682 5.49763 19.5268C3.52457 21.0066 3.67724 23.2556 4.00021 24.1952C4.14701 25.0467 5.09243 26.8201 7.69971 27.1019C14.1298 26.133 16.2438 18.3817 17.3888 15.563C2.52041 15.3516 -0.374588 9.66147 0.0364684 6.84281C-0.0222537 5.05178 1.21678 1.36403 6.6427 0.941235C12.0686 0.518436 17.1833 8.51638 19.0624 12.5682C31.0935 -14.9406 52.3593 13.9599 20.4718 15.8273C21.793 20.0259 24.3474 26.7496 22.4977 32.2988C20.5598 36.1745 16.9484 37.0553 14.0417 36.2626C11.1349 35.4698 9.98987 31.2419 10.6064 30.0968C11.0997 29.1807 12.1626 29.304 12.6324 29.4802C11.5754 32.9154 16.508 38.3766 20.0313 33.532C22.4977 29.0926 20.1194 21.1123 18.622 17.677C15.2161 22.4629 11.6634 31.0657 3.64787 27.3662Z" fill="#F5FA9E"/>
<path d="M17.3007 14.3935C14.5408 8.40383 7.69963 -1.98996 2.94318 3.73543C-1.31632 10.9702 11.2182 14.9548 17.3007 14.3935Z" fill="#6A0B46"/>
<path d="M20.0312 14.6578C26.7843 14.7752 39.0572 12.72 34.1246 3.55932C29.8085 -2.16608 22.6737 7.14136 20.0312 14.6578Z" fill="#6A0B46"/>
</svg>
